<svg width="52" height="52" viewBox="0 0 52 52" fill="none" xmlns="http://www.w3.org/2000/svg">
<path fill-rule="evenodd" clip-rule="evenodd" d="M19.6791 0C20.1437 0 21.1099 0.0769122 21.8159 0.173052C22.522 0.288421 23.8227 0.59607 24.696 0.88449C25.5693 1.17291 27.2416 1.90358 28.4122 2.5381C29.5828 3.1534 31.2366 4.17249 32.0913 4.80701C32.9274 5.42231 33.5964 5.97992 33.5592 6.03761C33.5406 6.09529 33.2247 5.97992 32.8717 5.76842C32.5186 5.55691 31.5153 5.07621 30.642 4.69164C29.7686 4.30708 28.8953 3.92252 28.6909 3.82638C28.4866 3.73024 27.6504 3.42259 26.8328 3.13417C26.0153 2.86498 24.7332 2.51887 23.9899 2.36505C23.2653 2.21123 21.9646 2.09586 21.1284 2.09586C20.2366 2.09586 19.1589 2.23045 18.5643 2.40351C17.9511 2.59579 17.3007 2.96112 16.9663 3.32645C16.5947 3.69179 16.3159 4.21094 16.2416 4.69164C16.1673 5.11466 16.1673 5.80687 16.223 6.22989C16.2974 6.65291 16.4089 7.11438 16.4832 7.22975C16.5761 7.42203 16.7805 7.4028 17.3565 7.11438C17.7653 6.9221 18.8987 6.49908 19.8649 6.1722C20.8312 5.84533 22.392 5.46077 23.3024 5.28771C24.2129 5.11466 25.6436 4.98006 26.4612 4.98006C27.2788 4.98006 28.4494 5.07621 29.0626 5.19157C29.6757 5.30694 30.642 5.63382 31.1994 5.90301C31.7568 6.19143 32.5001 6.69136 33.4291 7.67199L34.5997 6.40294C35.3801 5.53768 36.142 4.94161 36.9595 4.53782C37.7214 4.15326 38.5389 3.90329 39.1893 3.84561C39.8582 3.80715 40.5643 3.90329 41.2332 4.1148C42.0136 4.384 42.5339 4.74933 43.3886 5.63382C44.0947 6.36448 44.7264 7.2682 45.098 8.05655C45.4139 8.74876 45.8784 10.1332 46.1386 11.133C46.4173 12.1329 46.7146 13.9596 46.8261 15.1709C46.9376 16.4208 46.9747 18.2859 46.9004 19.4972C46.8261 20.6702 46.7146 21.9584 46.6403 22.3815C46.5288 23.0352 46.4916 22.8622 46.3616 21.2278C46.2872 20.1702 46.1014 18.4782 45.9528 17.4783C45.8041 16.4784 45.5068 14.921 45.2839 14.0172C45.0795 13.1135 44.5406 11.5945 44.1132 10.6523C43.5806 9.49866 42.986 8.55648 42.3295 7.82582C41.6234 7.07592 41.1031 6.69136 40.5828 6.53754C40.0997 6.40294 39.6166 6.40294 39.1893 6.51831C38.8362 6.61445 38.1673 7.03747 37.7028 7.44126C37.2382 7.86427 36.9038 8.24883 36.9595 8.28729C37.0153 8.32575 37.6284 8.8449 38.3531 9.44097C39.0778 10.037 40.3041 11.21 41.1031 12.0752C41.8835 12.9405 42.9426 14.2672 43.4257 15.0363C43.9089 15.7862 44.5592 17.113 44.8565 17.959C45.2653 19.1127 45.4139 19.8433 45.4139 20.8432C45.4139 21.5739 45.3582 22.4391 45.1538 23.3429L46.4916 23.689C47.2349 23.862 48.2754 24.2466 48.8143 24.4965C49.3345 24.7657 50.1149 25.3233 50.5237 25.7464C50.9325 26.1694 51.4528 26.8808 51.6572 27.3423C51.9916 28.0345 52.0474 28.3998 51.973 29.7842C51.9173 31.1302 51.7872 31.6686 51.2855 32.7646C50.9511 33.5145 50.2078 34.7066 49.6318 35.4373C49.0558 36.168 48.071 37.187 47.4578 37.7254C46.8447 38.2638 45.6741 39.1483 44.8565 39.6867C44.0389 40.2443 42.7382 41.0134 41.9764 41.4172C41.2146 41.821 40.1741 42.3017 39.6538 42.5132C39.1521 42.7247 38.7991 42.8016 38.9105 42.7055C39.022 42.6094 39.8024 42.0325 40.6757 41.4172C41.5491 40.8019 42.8311 39.8021 43.5558 39.206C44.2805 38.5907 45.4325 37.4562 46.1572 36.6871C46.8818 35.8988 47.7923 34.7451 48.2011 34.1106C48.5913 33.476 49.1301 32.3608 49.3717 31.6109C49.7061 30.5726 49.7805 30.0919 49.669 29.4958C49.5947 29.0728 49.3159 28.4767 49.0558 28.1691C48.7957 27.8614 48.2382 27.4384 47.8295 27.2654C47.4207 27.0731 46.9004 26.9 46.6774 26.9C46.2872 26.9 46.2315 27.0154 46.1386 28.1114C46.0828 28.7652 45.8413 30.1304 45.5997 31.1302C45.3582 32.1301 44.8936 33.6491 44.5778 34.4951C44.2619 35.3412 43.6673 36.591 43.2771 37.2832C42.8869 37.9754 42.1622 38.9753 41.6605 39.5136C41.1774 40.052 40.3227 40.725 39.8024 40.9942C39.2636 41.2826 38.7062 41.5134 38.5947 41.5134C38.4646 41.5134 38.2416 41.5903 38.1116 41.6672C37.9257 41.7633 37.9443 42.0902 38.2602 43.2439C38.4646 44.0515 38.6318 45.2821 38.6318 46.032C38.6318 46.7818 38.5203 47.8202 38.3717 48.3393C38.1673 49.0508 37.8514 49.5315 37.1639 50.2237C36.6436 50.7236 35.9004 51.262 35.5288 51.4158C35.1386 51.5889 34.2467 51.8004 33.522 51.9157C32.6487 52.0311 31.7197 52.0311 30.7349 51.8965C29.9173 51.7811 28.5423 51.4735 27.669 51.1851C26.7957 50.9159 25.3278 50.3198 24.4173 49.8776C23.5068 49.4161 21.9832 48.5316 21.0727 47.8971C20.1622 47.2433 19.1589 46.4934 18.2855 45.7051L18.9359 46.0896C19.2889 46.3011 20.5524 46.8972 21.723 47.4164C22.8937 47.9548 24.5288 48.6085 25.3464 48.8777C26.1639 49.1469 27.5947 49.5315 28.5051 49.7045C29.62 49.916 30.6791 49.9929 31.6639 49.916C32.4815 49.8583 33.4849 49.6661 33.8936 49.493C34.3024 49.3199 34.8784 48.9546 35.1572 48.6662C35.4359 48.3778 35.7518 47.8009 35.8632 47.3779C35.9933 46.8395 35.9933 46.3011 35.8632 45.6089C35.7518 45.0513 35.6031 44.5898 35.5288 44.5898C35.4359 44.5898 34.6741 44.8975 33.8007 45.2628C32.9274 45.6282 31.5153 46.0896 30.642 46.3011C29.7686 46.5127 28.2636 46.8011 27.2974 46.9164C25.9224 47.0895 25.1791 47.0895 23.9528 46.8972C23.0795 46.7818 21.9089 46.4934 21.3514 46.2627C20.794 46.0512 19.9764 45.532 18.7501 44.3976L17.5051 45.7243C16.6504 46.6088 15.87 47.2241 15.1268 47.5894C14.2534 48.0124 13.7332 48.1278 12.7112 48.147C11.6707 48.147 11.2061 48.0509 10.3886 47.6471C9.83115 47.3587 9.05074 46.7434 8.66054 46.3011C8.25176 45.8397 7.69433 45.0321 7.39703 44.4937C7.09973 43.9745 6.59804 42.7055 6.28216 41.7056C5.96629 40.7058 5.57608 38.8791 5.42743 37.6677C5.22304 36.091 5.18588 34.7643 5.2602 33.053C5.33453 31.7263 5.44602 30.3034 5.53892 29.8804C5.65041 29.2459 5.68757 29.4766 5.79906 31.2264C5.87338 32.3993 6.05919 34.0721 6.20784 34.9758C6.35649 35.8795 6.65379 37.3024 6.85818 38.1485C7.06257 38.9945 7.60142 40.475 8.06595 41.4172C8.51189 42.3594 9.25514 43.5708 9.6825 44.0899C10.1284 44.6091 10.7602 45.1475 11.0947 45.3013C11.4105 45.4359 11.9866 45.5512 12.3396 45.5512C12.6926 45.5512 13.1757 45.4551 13.4173 45.3205C13.6403 45.2051 14.142 44.8398 14.5322 44.5129C14.9224 44.1861 15.2011 43.8592 15.1825 43.8015C15.1453 43.7246 14.495 43.167 13.7332 42.5324C12.9714 41.8979 11.8937 40.8596 11.3362 40.2443C10.7788 39.6098 9.92406 38.5522 9.42237 37.86C8.9021 37.1678 8.17743 35.918 7.78723 35.072C7.39703 34.2259 6.96966 33.053 6.85818 32.4762C6.72811 31.8801 6.67237 30.9956 6.74669 30.4572C6.80243 29.9381 6.89534 29.2843 6.96966 29.0151C7.06257 28.5537 7.00683 28.5152 5.8548 28.3037C5.18588 28.1691 4.1825 27.8614 3.66223 27.6115C3.12338 27.3615 2.36156 26.8616 1.95277 26.4963C1.56257 26.1309 1.02372 25.4579 0.763583 24.9772C0.391961 24.3235 0.261894 23.7659 0.20615 22.6699C0.150407 21.497 0.20615 20.997 0.559191 20.0741C0.800745 19.4396 1.37676 18.3051 1.85987 17.5744C2.32439 16.8438 3.34635 15.6324 4.0896 14.921C4.85142 14.2095 6.13351 13.152 6.95108 12.5944C7.76865 12.0368 8.9021 11.3253 9.45953 10.9984C10.017 10.6716 11.0947 10.1524 11.8379 9.80631C12.5626 9.47943 13.1757 9.22946 13.1757 9.26792C13.1943 9.28715 12.8413 9.55634 12.3953 9.86399C11.9494 10.1716 10.7974 11.0369 9.83115 11.7868C8.86493 12.5367 7.30412 13.9211 6.39365 14.8825C5.4646 15.8247 4.36831 17.1706 3.94095 17.8629C3.495 18.5551 2.97473 19.6126 2.77034 20.2279C2.56595 20.824 2.39872 21.6316 2.39872 21.9969C2.39872 22.3622 2.5102 22.9006 2.65885 23.2083C2.8075 23.4967 3.12338 23.9197 3.36493 24.1504C3.58791 24.3619 4.12676 24.6888 4.53554 24.8619C4.94433 25.0349 5.40885 25.1695 5.5575 25.1695C5.76189 25.1695 5.91054 24.6696 6.1521 23.1121C6.31933 21.9584 6.72811 20.2087 7.04399 19.2088C7.35987 18.209 7.93588 16.6899 8.34466 15.8439C8.73487 14.9979 9.44095 13.8057 9.90547 13.2097C10.3886 12.5944 11.1504 11.806 11.6521 11.4791C12.1352 11.133 12.9528 10.71 13.4545 10.5177C14.0305 10.3062 14.3464 10.0947 14.3092 9.9409C14.272 9.80631 14.0676 9.07564 13.8818 8.34497C13.6217 7.38357 13.5474 6.57599 13.6031 5.46077C13.6403 4.42245 13.7889 3.67256 14.0491 3.1534C14.2534 2.73038 14.6622 2.13431 14.9781 1.80744C15.2754 1.48056 15.8886 1.03831 16.3345 0.807578C16.7991 0.557613 17.5423 0.288421 18.0068 0.192281C18.4714 0.0961403 19.2146 0.0192281 19.6791 0V0ZM20.7011 7.28743C20.0879 7.4028 19.0288 7.61431 18.3413 7.76813C17.6352 7.92196 17.0778 8.11424 17.0778 8.21038C17.0778 8.28729 17.3751 8.86413 17.7467 9.49866C18.0997 10.1332 18.843 11.21 19.3818 11.9022C19.9207 12.5944 20.9798 13.7288 21.7416 14.421C22.5034 15.1132 23.7855 16.2285 24.6031 16.863L26.0896 18.0359C26.9629 17.3822 27.8362 16.5554 28.598 15.7478C29.843 14.4595 30.0845 14.0942 30.7906 12.3444C31.4781 10.5947 31.5524 10.287 31.3852 9.69094C31.2737 9.28715 30.9207 8.78722 30.5119 8.44111C30.1217 8.11424 29.3041 7.69122 28.6909 7.46048C27.892 7.19129 26.9629 7.05669 25.3464 6.99901C24.12 6.96055 22.8193 6.97978 22.4663 7.01824C22.1132 7.05669 21.3143 7.19129 20.7011 7.28743V7.28743ZM35.9747 9.78708C35.7146 10.2678 35.2315 11.2676 34.897 11.9983C34.5811 12.7482 34.0795 14.2864 33.8007 15.4594C33.522 16.6323 33.1876 18.4782 33.0575 19.5934C32.9089 20.7086 32.8531 21.7469 32.9089 21.9007C32.9646 22.0546 33.8193 22.4776 34.8413 22.8237C36.0305 23.2467 37.071 23.4774 37.7957 23.4967C38.4089 23.5159 39.5609 23.439 40.3784 23.3429C41.6605 23.1698 41.9021 23.0737 42.348 22.5737C42.6082 22.2661 42.9055 21.6508 42.9798 21.2278C43.0541 20.7855 43.0355 19.9779 42.9055 19.305C42.794 18.6704 42.2923 17.286 41.772 16.2285C41.2703 15.1709 40.4528 13.7481 39.9511 13.0558C39.4494 12.3636 38.4646 11.1523 37.7585 10.3639L36.4578 8.92182L35.9747 9.78708ZM12.3582 13.9403C12.0423 14.1326 11.3548 14.8633 10.8159 15.5555C10.2585 16.2477 9.40378 17.6706 8.9021 18.7281C8.38183 19.7857 7.67574 21.5546 7.3227 22.6699C6.96966 23.7851 6.67237 24.8042 6.67237 24.9388C6.67237 25.0926 7.08115 25.1695 8.12169 25.1695C8.9021 25.1695 10.2585 25.0349 11.1318 24.8811C12.0051 24.708 13.3801 24.3427 14.1977 24.0927C15.0153 23.8236 16.5018 23.2467 17.5051 22.8045C19.1774 22.0546 19.3261 21.9584 19.3075 21.4777C19.3075 21.1701 19.1774 20.3433 19.0288 19.5934C18.8801 18.8627 18.6014 17.8436 18.4156 17.3437C18.2298 16.8245 17.6352 15.8247 17.0964 15.0748C16.5389 14.3441 15.9257 13.575 15.7028 13.3827C15.4612 13.1712 15.0339 13.0366 14.5693 13.0558C14.1605 13.0558 13.6217 13.1712 13.3616 13.3058C13.1014 13.4404 12.6555 13.7288 12.3582 13.9403V13.9403ZM24.0271 24.4581C23.6555 24.6888 23.6369 24.8426 23.6926 26.0925L23.767 27.4769L26.1825 28.8228L28.3936 27.3807L28.4122 24.4965C26.5355 23.5351 25.9409 23.2467 25.8666 23.2659C25.7737 23.2659 25.4207 23.4774 25.0676 23.7274C24.7146 23.9966 24.2315 24.3043 24.0271 24.4581V24.4581ZM39.468 27.4577C38.6504 27.6692 37.517 28.0153 36.9595 28.2075C36.4021 28.4191 35.2129 28.8998 34.321 29.2843C33.4105 29.6689 32.6859 29.9958 32.6859 30.0342C32.6859 30.0534 32.8159 30.7649 32.946 31.6109C33.0947 32.4569 33.3734 33.6683 33.5592 34.3028C33.7822 35.0143 34.2653 35.918 34.8413 36.6871C35.343 37.3601 35.919 38.11 36.1234 38.3792C36.3649 38.6676 36.7551 38.8791 37.2382 38.956C37.7585 39.0329 38.2045 38.956 38.7247 38.7061C39.1149 38.4946 39.8582 37.9562 40.3599 37.4755C40.8616 36.9948 41.642 36.0526 42.0879 35.3604C42.5153 34.6682 43.1656 33.4568 43.5372 32.6685C43.8903 31.8801 44.4849 30.3226 44.8379 29.2074C45.2095 28.0922 45.5068 27.0731 45.5068 26.9577C45.5068 26.7847 45.1909 26.7078 44.4477 26.727C43.8531 26.7462 42.8311 26.8231 42.1622 26.9C41.4933 26.9962 40.2855 27.2269 39.468 27.4577V27.4577ZM9.86831 29.2651C9.64534 29.4958 9.34804 29.9958 9.23656 30.3611C9.12507 30.7457 9.08791 31.4955 9.16223 32.1493C9.21797 32.7454 9.47811 33.7837 9.71966 34.4567C9.96122 35.1104 10.5001 36.2449 10.9274 36.9948C11.3734 37.7447 12.0609 38.8214 12.4882 39.3983C12.9156 39.9751 13.7703 40.9942 14.3835 41.648C14.9967 42.3209 15.5541 42.8786 15.647 42.8593C15.7214 42.8593 16.093 42.2825 16.4646 41.571C16.8548 40.8404 17.3936 39.5713 17.6909 38.7253C17.9882 37.8793 18.3784 36.4564 18.5643 35.5527C18.7501 34.6489 19.0102 33.053 19.1217 31.9955C19.3261 30.3611 19.3075 30.0342 19.0845 29.8804C18.9359 29.765 18.1183 29.4381 17.2636 29.1305C16.2045 28.7652 15.2197 28.5537 14.2906 28.5152C13.5288 28.496 12.321 28.5537 11.5964 28.6498C10.6859 28.7844 10.1656 28.9574 9.86831 29.2651V29.2651ZM22.7264 37.014C22.4105 37.437 21.7974 38.5907 21.37 39.5906C20.9612 40.5904 20.6082 41.5903 20.6082 41.8018C20.6082 42.0133 20.794 42.494 21.0355 42.8593C21.2585 43.2247 21.7974 43.7246 22.1876 43.9553C22.5964 44.1861 23.4697 44.5129 24.1386 44.7052C25.1048 44.9552 25.9224 44.9936 28.2264 44.936C30.2518 44.859 31.6825 44.7052 33.0575 44.3976C34.1352 44.1476 35.0457 43.9169 35.1014 43.8976C35.1572 43.8592 34.7855 43.1093 34.2653 42.244C33.6707 41.2249 32.6487 39.9559 31.3852 38.6292C30.3075 37.5139 28.6909 36.0141 27.7619 35.3027C26.8514 34.5913 26.0524 34.0144 25.9967 34.0144C25.9409 34.0144 25.3278 34.5336 24.6031 35.1489C23.897 35.7642 23.0423 36.6102 22.7264 37.014V37.014Z" fill="#D345A3"/>
<path d="M13.4155 6.61619C13.3598 5.88553 13.3598 4.94335 13.4341 4.55879C13.5084 4.155 13.5828 3.82812 13.6199 3.82812C13.6385 3.82812 13.6199 4.50111 13.5828 5.32791C13.5456 6.25086 13.6199 7.26995 13.7872 8.0583C13.9544 8.75051 14.0473 9.34658 14.0101 9.40426C13.973 9.46194 13.8429 9.15429 13.7314 8.73128C13.6199 8.30826 13.4713 7.34686 13.4155 6.61619Z" fill="#5E5E5E" fill-opacity="0.8"/>
<path d="M5.09122 16.2302L6.29899 14.9419C6.94932 14.2113 7.52534 13.6344 7.54392 13.6344C7.58108 13.6344 7.59966 13.6537 7.59966 13.6921C7.59966 13.7113 7.04223 14.2882 5.09122 16.2302Z" fill="#5E5E5E" fill-opacity="0.8"/>
<path d="M0.706081 19.3067C1.00338 18.6722 1.50507 17.7877 1.82095 17.3454C2.13682 16.884 2.43412 16.5186 2.47128 16.5186C2.50845 16.5186 2.21115 17.0186 1.82095 17.6339C1.41216 18.2299 0.891892 19.249 0.631757 19.8835C0.390203 20.5181 0.16723 20.9026 0.16723 20.7488C0.16723 20.595 0.408784 19.9412 0.706081 19.3067Z" fill="#5E5E5E" fill-opacity="0.8"/>
<path d="M0.148649 23.9214C0.0743243 23.7099 0 22.9793 0 22.2871C0.0185811 21.5948 0.0371622 21.1141 0.0743243 21.2295C0.111486 21.3449 0.16723 22.0755 0.222973 22.8639C0.260135 23.6907 0.241554 24.1329 0.148649 23.9214Z" fill="#5E5E5E" fill-opacity="0.8"/>
<path d="M0.873311 25.4597C0.576013 25.0367 0.35304 24.6136 0.35304 24.4983C0.35304 24.3829 0.538851 24.6136 0.743243 24.979C0.966216 25.3443 1.39358 25.9596 1.70946 26.3249C2.08108 26.7287 2.13682 26.8441 1.85811 26.6134C1.61655 26.4019 1.17061 25.8827 0.873311 25.4597Z" fill="#5E5E5E" fill-opacity="0.8"/>
<path d="M11.799 40.9383C11.5203 40.6691 10.9443 40.0538 10.5169 39.5538C10.1081 39.0347 9.82939 38.6309 9.90372 38.6309C9.97804 38.6309 10.5541 39.2654 11.1858 40.0345C11.799 40.7844 12.0777 41.2075 11.799 40.9383Z" fill="#5E5E5E" fill-opacity="0.8"/>
<path d="M31.7551 49.9178C31.402 49.9562 30.7331 49.9562 30.2686 49.9178C29.8041 49.8793 30.1013 49.8409 30.9189 49.8409C31.7365 49.8409 32.1081 49.8793 31.7551 49.9178Z" fill="#5E5E5E" fill-opacity="0.8"/>
<path d="M22.0929 14.9804C22.0372 14.9804 21.4054 14.3843 20.6993 13.6344C19.9932 12.8845 19.473 12.2885 19.5473 12.2885C19.6216 12.2885 20.2534 12.9038 20.9409 13.6344C21.6284 14.3843 22.1486 14.9804 22.0929 14.9804Z" fill="#5E5E5E" fill-opacity="0.8"/>
<path d="M28.5034 26.9979L28.4105 25.6135C28.3547 24.8444 28.3733 24.2868 28.4662 24.3637C28.5405 24.4406 28.5777 25.0559 28.5034 26.9979Z" fill="#5E5E5E" fill-opacity="0.8"/>
<path d="M32.6841 39.7846C32.6284 39.7846 32.0152 39.1885 31.2905 38.4386C30.5659 37.6887 30.0642 37.0927 30.1385 37.0927C30.2128 37.0927 30.8446 37.708 31.5321 38.4386C32.2196 39.1885 32.7399 39.7846 32.6841 39.7846Z" fill="#5E5E5E" fill-opacity="0.8"/>
<path d="M28.2219 45.1081C27.8689 45.1466 27.2 45.1466 26.7355 45.1081C26.2709 45.0697 26.5682 45.0312 27.3858 45.0312C28.2034 45.0312 28.575 45.0697 28.2219 45.1081Z" fill="#D345A3"/>
</svg>
