<svg width="43" height="42" viewBox="0 0 43 42" fill="none" xmlns="http://www.w3.org/2000/svg">
<path fill-rule="evenodd" clip-rule="evenodd" d="M16.1691 0C16.5508 0 17.3447 0.0611012 17.9249 0.137478C18.5051 0.229129 19.5739 0.473534 20.2915 0.702664C21.0091 0.931793 22.3832 1.51225 23.3451 2.01634C24.307 2.50515 25.6658 3.31474 26.3682 3.81882C27.0552 4.30763 27.6049 4.75062 27.5743 4.79644C27.5591 4.84227 27.2995 4.75062 27.0094 4.58259C26.7193 4.41456 25.8948 4.03268 25.1772 3.72717C24.4596 3.42167 23.742 3.11616 23.5741 3.03978C23.4061 2.96341 22.7191 2.719 22.0473 2.48987C21.3755 2.27602 20.322 2.00106 19.7113 1.87886C19.1158 1.75666 18.0471 1.66501 17.36 1.66501C16.6271 1.66501 15.7416 1.77193 15.253 1.90941C14.7492 2.06217 14.2148 2.3524 13.9399 2.64263C13.6346 2.93286 13.4056 3.34529 13.3445 3.72717C13.2834 4.06323 13.2834 4.61314 13.3292 4.9492C13.3903 5.28525 13.4819 5.65186 13.543 5.74351C13.6193 5.89627 13.7873 5.88099 14.2606 5.65186C14.5965 5.49911 15.5278 5.16305 16.3218 4.90337C17.1157 4.64369 18.3982 4.33818 19.1464 4.20071C19.8945 4.06323 21.0701 3.9563 21.7419 3.9563C22.4137 3.9563 23.3756 4.03268 23.8795 4.12433C24.3833 4.21598 25.1772 4.47566 25.6353 4.68952C26.0933 4.91865 26.704 5.3158 27.4674 6.09484L28.4293 5.08667C29.0706 4.39929 29.6966 3.92575 30.3684 3.60497C30.9944 3.29946 31.6662 3.10089 32.2006 3.05506C32.7502 3.02451 33.3304 3.10089 33.88 3.26891C34.5213 3.48277 34.9488 3.773 35.6511 4.47566C36.2313 5.05612 36.7504 5.77406 37.0558 6.40035C37.3153 6.95026 37.697 8.05008 37.9108 8.8444C38.1398 9.63871 38.3841 11.0899 38.4757 12.0522C38.5673 13.0451 38.5979 14.5268 38.5368 15.4892C38.4757 16.4209 38.3841 17.4444 38.323 17.7804C38.2314 18.2998 38.2009 18.1623 38.094 16.8639C38.0329 16.0238 37.8803 14.6796 37.7581 13.8852C37.636 13.0909 37.3917 11.8536 37.2085 11.1357C37.0405 10.4178 36.5978 9.21101 36.2466 8.46252C35.8089 7.546 35.3203 6.79751 34.7808 6.21705C34.2007 5.62131 33.7732 5.3158 33.3457 5.1936C32.9487 5.08667 32.5517 5.08667 32.2006 5.17833C31.9105 5.2547 31.3608 5.59076 30.9791 5.91154C30.5974 6.2476 30.3226 6.5531 30.3684 6.58365C30.4142 6.6142 30.918 7.02664 31.5135 7.50017C32.1089 7.97371 33.1166 8.9055 33.7732 9.59289C34.4144 10.2803 35.2847 11.3343 35.6817 11.9453C36.0786 12.541 36.613 13.595 36.8573 14.2671C37.1932 15.1836 37.3153 15.7641 37.3153 16.5584C37.3153 17.1389 37.2695 17.8263 37.1016 18.5442L38.2009 18.8192C38.8116 18.9566 39.6666 19.2622 40.1094 19.4607C40.5369 19.6746 41.1782 20.1176 41.5141 20.4536C41.85 20.7897 42.2775 21.3549 42.4454 21.7215C42.7202 22.2714 42.766 22.5616 42.705 23.6614C42.6592 24.7307 42.5523 25.1584 42.1401 26.0291C41.8652 26.6248 41.2545 27.5719 40.7812 28.1524C40.3079 28.7328 39.4987 29.5424 38.9948 29.9701C38.491 30.3978 37.5291 31.1005 36.8573 31.5282C36.1855 31.9712 35.1167 32.5822 34.4908 32.903C33.8648 33.2238 33.0098 33.6057 32.5822 33.7737C32.17 33.9417 31.8799 34.0028 31.9715 33.9264C32.0631 33.8501 32.7044 33.3918 33.422 32.903C34.1396 32.4142 35.1931 31.6199 35.7885 31.1463C36.384 30.6575 37.3306 29.7563 37.9261 29.1453C38.5215 28.519 39.2697 27.6025 39.6056 27.0984C39.9262 26.5943 40.369 25.7083 40.5674 25.1126C40.8423 24.2877 40.9033 23.9058 40.8117 23.4323C40.7507 23.0963 40.5216 22.6227 40.3079 22.3783C40.0941 22.1339 39.6361 21.7979 39.3002 21.6604C38.9643 21.5076 38.5368 21.3701 38.3536 21.3701C38.0329 21.3701 37.9871 21.4618 37.9108 22.3325C37.865 22.8518 37.6665 23.9364 37.468 24.7307C37.2695 25.525 36.8878 26.7318 36.6283 27.4039C36.3687 28.076 35.8801 29.0689 35.5595 29.6188C35.2389 30.1687 34.6434 30.963 34.2312 31.3907C33.8342 31.8184 33.1319 32.3531 32.7044 32.5669C32.2616 32.7961 31.8036 32.9794 31.712 32.9794C31.6051 32.9794 31.4219 33.0405 31.315 33.1016C31.1623 33.1779 31.1776 33.4376 31.4371 34.3541C31.6051 34.9957 31.7425 35.9733 31.7425 36.5691C31.7425 37.1648 31.6509 37.9897 31.5288 38.4021C31.3608 38.9673 31.1012 39.3492 30.5363 39.8991C30.1088 40.2962 29.4981 40.7239 29.1927 40.8461C28.8721 40.9836 28.1392 41.1517 27.5438 41.2433C26.8262 41.335 26.0628 41.335 25.2536 41.228C24.5818 41.1364 23.452 40.892 22.7344 40.6628C22.0168 40.449 20.8106 39.9755 20.0624 39.6241C19.3143 39.2575 18.0623 38.5549 17.3142 38.0508C16.5661 37.5314 15.7416 36.9357 15.024 36.3094L15.5584 36.6149C15.8485 36.7829 16.8867 37.2565 17.8486 37.6689C18.8105 38.0966 20.154 38.616 20.8258 38.8298C21.4976 39.0437 22.6733 39.3492 23.4214 39.4866C24.3375 39.6547 25.2078 39.7158 26.017 39.6547C26.6888 39.6088 27.5133 39.4561 27.8492 39.3186C28.185 39.1811 28.6584 38.8909 28.8874 38.6618C29.1164 38.4327 29.376 37.9744 29.4676 37.6383C29.5744 37.2106 29.5744 36.7829 29.4676 36.233C29.376 35.79 29.2538 35.4234 29.1927 35.4234C29.1164 35.4234 28.4904 35.6678 27.7728 35.958C27.0552 36.2483 25.8948 36.6149 25.1772 36.7829C24.4596 36.9509 23.2229 37.1801 22.429 37.2717C21.2992 37.4092 20.6884 37.4092 19.6807 37.2565C18.9631 37.1648 18.0013 36.9357 17.5432 36.7524C17.0852 36.5843 16.4134 36.1719 15.4057 35.2707L14.3827 36.3247C13.6804 37.0273 13.0391 37.5161 12.4284 37.8064C11.7108 38.1424 11.2833 38.2341 10.4436 38.2493C9.58855 38.2493 9.20685 38.173 8.53505 37.8522C8.07701 37.6231 7.43575 37.1343 7.11512 36.7829C6.77923 36.4163 6.32119 35.7747 6.0769 35.347C5.83261 34.9346 5.42037 33.9264 5.16081 33.1321C4.90126 32.3378 4.58063 30.8867 4.45848 29.9243C4.29053 28.6717 4.26 27.6177 4.32107 26.2582C4.38214 25.2042 4.47375 24.0739 4.55009 23.7378C4.6417 23.2337 4.67224 23.417 4.76384 24.8071C4.82492 25.7389 4.9776 27.0678 5.09974 27.7858C5.22188 28.5037 5.46617 29.6341 5.63412 30.3062C5.80207 30.9783 6.24484 32.1545 6.62655 32.903C6.99298 33.6515 7.6037 34.6138 7.95487 35.0263C8.3213 35.4387 8.84042 35.8664 9.11524 35.9886C9.3748 36.0955 9.84811 36.1872 10.1382 36.1872C10.4283 36.1872 10.8253 36.1108 11.0237 36.0039C11.207 35.9122 11.6192 35.622 11.9398 35.3623C12.2605 35.1026 12.4895 34.843 12.4742 34.7971C12.4437 34.736 11.9093 34.293 11.2833 33.789C10.6573 33.2849 9.77177 32.46 9.31373 31.9712C8.85568 31.4671 8.15335 30.627 7.74112 30.0771C7.31361 29.5272 6.71815 28.5343 6.39753 27.8621C6.0769 27.19 5.72573 26.2582 5.63412 25.8C5.52725 25.3264 5.48144 24.6238 5.54251 24.1961C5.58832 23.7836 5.66466 23.2643 5.72573 23.0504C5.80207 22.6838 5.75627 22.6533 4.80965 22.4852C4.26 22.3783 3.43552 22.1339 3.00802 21.9353C2.56524 21.7367 1.93925 21.3396 1.60335 21.0494C1.28273 20.7591 0.839952 20.2245 0.626199 19.8426C0.320838 19.3233 0.213961 18.8803 0.168157 18.0096C0.122353 17.0778 0.168157 16.6806 0.45825 15.9474C0.656735 15.4433 1.13004 14.5421 1.52701 13.9616C1.90872 13.3812 2.74846 12.4188 3.35918 11.8536C3.98517 11.2884 5.03867 10.4483 5.71046 10.0053C6.38226 9.56234 7.31361 8.99715 7.77165 8.73747C8.22969 8.47779 9.11524 8.06536 9.72596 7.7904C10.3214 7.53072 10.8253 7.33214 10.8253 7.36269C10.8405 7.37797 10.5504 7.59182 10.184 7.83623C9.81757 8.08063 8.87095 8.76802 8.07701 9.36376C7.28307 9.95949 6.00056 11.0593 5.25242 11.8231C4.48902 12.5716 3.5882 13.6408 3.23704 14.1908C2.8706 14.7407 2.4431 15.5808 2.27515 16.0696C2.1072 16.5431 1.96979 17.1847 1.96979 17.4749C1.96979 17.7652 2.0614 18.1929 2.18354 18.4373C2.30569 18.6664 2.56524 19.0025 2.76373 19.1858C2.94694 19.3538 3.38972 19.6135 3.72562 19.751C4.06151 19.8884 4.44321 19.9954 4.56536 19.9954C4.73331 19.9954 4.85545 19.5982 5.05394 18.3609C5.19135 17.4444 5.52725 16.0543 5.7868 15.26C6.04636 14.4657 6.51967 13.259 6.85557 12.5868C7.1762 11.9147 7.75638 10.9677 8.13808 10.4941C8.53505 10.0053 9.16105 9.37903 9.57328 9.11935C9.97025 8.8444 10.642 8.50834 11.0543 8.35559C11.5276 8.18756 11.7872 8.01953 11.7566 7.89733C11.7261 7.7904 11.5581 7.20994 11.4054 6.62948C11.1917 5.86571 11.1306 5.22415 11.1764 4.33818C11.207 3.51332 11.3291 2.91758 11.5429 2.50515C11.7108 2.16909 12.0467 1.69556 12.3063 1.43588C12.5506 1.1762 13.0544 0.824866 13.4208 0.641562C13.8025 0.442984 14.4133 0.229129 14.795 0.152753C15.1767 0.0763765 15.7874 0.0152753 16.1691 0V0ZM17.0088 5.78934C16.505 5.88099 15.6347 6.04902 15.0698 6.17122C14.4896 6.29342 14.0316 6.44618 14.0316 6.52255C14.0316 6.58365 14.2758 7.04191 14.5812 7.546C14.8713 8.05008 15.482 8.9055 15.9248 9.45541C16.3676 10.0053 17.2378 10.9066 17.8638 11.4565C18.4898 12.0064 19.5433 12.8924 20.2151 13.3964L21.4366 14.3282C22.1542 13.8089 22.8718 13.152 23.4978 12.5105C24.5207 11.487 24.7192 11.1968 25.2994 9.80674C25.8643 8.41669 25.9254 8.17229 25.788 7.69875C25.6964 7.37797 25.4063 6.98081 25.0704 6.70586C24.7497 6.44618 24.0779 6.11012 23.5741 5.92682C22.9176 5.71296 22.1542 5.60603 20.8258 5.56021C19.8182 5.52966 18.7494 5.54493 18.4593 5.57548C18.1692 5.60603 17.5127 5.71296 17.0088 5.78934ZM29.5592 7.77513C29.3454 8.15701 28.9485 8.95132 28.6736 9.53179C28.4141 10.1275 28.0018 11.3495 27.7728 12.2813C27.5438 13.2131 27.269 14.6796 27.1621 15.5655C27.0399 16.4515 26.9941 17.2764 27.0399 17.3986C27.0857 17.5208 27.7881 17.8568 28.6278 18.1318C29.605 18.4678 30.46 18.6511 31.0554 18.6664C31.5593 18.6817 32.5059 18.6206 33.1777 18.5442C34.2312 18.4067 34.4297 18.3304 34.7961 17.9332C35.0099 17.6888 35.2542 17.2 35.3152 16.8639C35.3763 16.5126 35.361 15.871 35.2542 15.3364C35.1626 14.8323 34.7503 13.7325 34.3228 12.8924C33.9106 12.0522 33.2388 10.9218 32.8265 10.3719C32.4143 9.82202 31.6051 8.85967 31.0249 8.23339L29.9561 7.08774L29.5592 7.77513ZM10.1535 11.0746C9.89391 11.2273 9.32899 11.8078 8.88622 12.3577C8.42818 12.9076 7.72585 14.038 7.31361 14.8781C6.8861 15.7183 6.30592 17.1236 6.01582 18.0096C5.72573 18.8955 5.48144 19.7051 5.48144 19.8121C5.48144 19.9343 5.81734 19.9954 6.67235 19.9954C7.31361 19.9954 8.42818 19.8884 9.14578 19.7662C9.86338 19.6288 10.9932 19.3385 11.665 19.1399C12.3368 18.9261 13.5582 18.4678 14.3827 18.1165C15.7568 17.5208 15.879 17.4444 15.8637 17.0625C15.8637 16.8181 15.7568 16.1613 15.6347 15.5655C15.5126 14.9851 15.2835 14.1755 15.1309 13.7783C14.9782 13.3659 14.4896 12.5716 14.0468 11.9758C13.5888 11.3954 13.0849 10.7844 12.9017 10.6316C12.7032 10.4636 12.3521 10.3567 11.9704 10.3719C11.6345 10.3719 11.1917 10.4636 10.9779 10.5705C10.7642 10.6774 10.3978 10.9066 10.1535 11.0746ZM19.7418 19.4302C19.4364 19.6135 19.4212 19.7357 19.467 20.7286L19.5281 21.8284L21.5129 22.8977L23.3298 21.752L23.3451 19.4607C21.803 18.697 21.3144 18.4678 21.2533 18.4831C21.177 18.4831 20.8869 18.6511 20.5968 18.8497C20.3067 19.0636 19.9098 19.308 19.7418 19.4302ZM32.4296 21.8131C31.7578 21.9812 30.8264 22.2561 30.3684 22.4089C29.9103 22.5769 28.9332 22.9588 28.2003 23.2643C27.4522 23.5698 26.8567 23.8295 26.8567 23.86C26.8567 23.8753 26.9636 24.4405 27.0705 25.1126C27.1926 25.7847 27.4216 26.747 27.5743 27.2511C27.7575 27.8163 28.1545 28.5343 28.6278 29.1453C29.0401 29.6799 29.5134 30.2756 29.6813 30.4895C29.8798 30.7186 30.2004 30.8867 30.5974 30.9478C31.0249 31.0089 31.3913 30.9478 31.8188 30.7492C32.1395 30.5811 32.7502 30.1534 33.1624 29.7716C33.5747 29.3897 34.2159 28.6412 34.5824 28.0913C34.9335 27.5414 35.4679 26.579 35.7733 25.9527C36.0634 25.3264 36.5519 24.0891 36.842 23.2032C37.1474 22.3172 37.3917 21.5076 37.3917 21.416C37.3917 21.2785 37.1321 21.2174 36.5214 21.2327C36.0328 21.2479 35.1931 21.309 34.6434 21.3701C34.0938 21.4465 33.1014 21.6298 32.4296 21.8131ZM8.10755 23.249C7.92433 23.4323 7.68004 23.8295 7.58843 24.1197C7.49683 24.4252 7.46629 25.0209 7.52736 25.5403C7.57317 26.0138 7.78692 26.8387 7.9854 27.3733C8.18389 27.8927 8.62666 28.7939 8.97783 29.3897C9.34426 29.9854 9.90918 30.8408 10.2603 31.2991C10.6115 31.7573 11.3138 32.5669 11.8177 33.0863C12.3215 33.6209 12.7796 34.0639 12.8559 34.0486C12.917 34.0486 13.2223 33.5904 13.5277 33.0252C13.8483 32.4447 14.2911 31.4366 14.5354 30.7645C14.7797 30.0923 15.1003 28.962 15.253 28.244C15.4057 27.5261 15.6194 26.2582 15.711 25.4181C15.879 24.1197 15.8637 23.86 15.6805 23.7378C15.5584 23.6462 14.8866 23.3865 14.1842 23.1421C13.314 22.8518 12.5048 22.6838 11.7413 22.6533C11.1154 22.638 10.1229 22.6838 9.52748 22.7602C8.77934 22.8671 8.35184 23.0046 8.10755 23.249ZM18.673 29.4049C18.4135 29.741 17.9096 30.6575 17.5585 31.4518C17.2226 32.2462 16.9325 33.0405 16.9325 33.2085C16.9325 33.3765 17.0852 33.7584 17.2837 34.0486C17.4669 34.3389 17.9096 34.736 18.2303 34.9193C18.5662 35.1026 19.2838 35.3623 19.8334 35.5151C20.6274 35.7136 21.2992 35.7442 23.1924 35.6984C24.8566 35.6373 26.0323 35.5151 27.1621 35.2707C28.0476 35.0721 28.7958 34.8888 28.8416 34.8735C28.8874 34.843 28.582 34.2472 28.1545 33.5598C27.6659 32.7502 26.8262 31.7421 25.788 30.6881C24.9024 29.8021 23.5741 28.6106 22.8107 28.0454C22.0626 27.4803 21.406 27.022 21.3602 27.022C21.3144 27.022 20.8106 27.4344 20.2151 27.9232C19.6349 28.4121 18.9326 29.0842 18.673 29.4049Z" fill="white"/>
<path d="M11.0235 5.25459C10.9777 4.67413 10.9777 3.92564 11.0388 3.62013C11.0999 3.29935 11.161 3.03967 11.1915 3.03967C11.2068 3.03967 11.1915 3.57431 11.161 4.23115C11.1304 4.96436 11.1915 5.77395 11.3289 6.40024C11.4663 6.95015 11.5427 7.42368 11.5121 7.46951C11.4816 7.51534 11.3747 7.27093 11.2831 6.93487C11.1915 6.59882 11.0693 5.83505 11.0235 5.25459Z" fill="white" fill-opacity="0.8"/>
<path d="M4.18345 12.8922L5.17587 11.8688C5.71025 11.2883 6.18356 10.8301 6.19883 10.8301C6.22937 10.8301 6.24464 10.8454 6.24464 10.8759C6.24464 10.8912 5.78659 11.3494 4.18345 12.8922Z" fill="white" fill-opacity="0.8"/>
<path d="M0.580186 15.3363C0.824475 14.8322 1.23671 14.1295 1.49627 13.7782C1.75583 13.4116 2.00012 13.1214 2.03065 13.1214C2.06119 13.1214 1.8169 13.5185 1.49627 14.0073C1.16037 14.4809 0.732867 15.2905 0.519114 15.7945C0.320629 16.2986 0.137413 16.6041 0.137413 16.4819C0.137413 16.3597 0.335897 15.8404 0.580186 15.3363Z" fill="white" fill-opacity="0.8"/>
<path d="M0.122144 19.0024C0.0610722 18.8343 0 18.2539 0 17.704C0.0152681 17.154 0.0305361 16.7722 0.0610722 16.8638C0.0916084 16.9555 0.137413 17.5359 0.183217 18.1622C0.213753 18.8191 0.198485 19.1704 0.122144 19.0024Z" fill="white" fill-opacity="0.8"/>
<path d="M0.717599 20.2244C0.47331 19.8883 0.290093 19.5523 0.290093 19.4606C0.290093 19.369 0.442774 19.5523 0.610722 19.8425C0.793939 20.1327 1.1451 20.6215 1.40466 20.9118C1.71002 21.2326 1.75583 21.3242 1.52681 21.1409C1.32832 20.9729 0.961888 20.5604 0.717599 20.2244Z" fill="white" fill-opacity="0.8"/>
<path d="M9.69522 32.521C9.4662 32.3071 8.99289 31.8183 8.64172 31.4212C8.30582 31.0087 8.0768 30.688 8.13788 30.688C8.19895 30.688 8.67226 31.192 9.19137 31.8031C9.69522 32.3988 9.92424 32.7349 9.69522 32.521Z" fill="white" fill-opacity="0.8"/>
<path d="M26.0931 39.6546C25.803 39.6851 25.2534 39.6851 24.8717 39.6546C24.49 39.624 24.7343 39.5935 25.4061 39.5935C26.0778 39.5935 26.3832 39.624 26.0931 39.6546Z" fill="white" fill-opacity="0.8"/>
<path d="M18.1537 11.8993C18.1079 11.8993 17.5888 11.4258 17.0086 10.8301C16.4284 10.2343 16.0009 9.7608 16.062 9.7608C16.1231 9.7608 16.6422 10.2496 17.2071 10.8301C17.772 11.4258 18.1995 11.8993 18.1537 11.8993Z" fill="white" fill-opacity="0.8"/>
<path d="M23.4212 21.4464L23.3449 20.3466C23.2991 19.7356 23.3143 19.2926 23.3907 19.3537C23.4517 19.4148 23.4823 19.9036 23.4212 21.4464Z" fill="white" fill-opacity="0.8"/>
<path d="M26.8565 31.6045C26.8107 31.6045 26.3069 31.1309 25.7114 30.5352C25.116 29.9395 24.7037 29.4659 24.7648 29.4659C24.8259 29.4659 25.345 29.9547 25.9099 30.5352C26.4748 31.1309 26.9023 31.6045 26.8565 31.6045Z" fill="white" fill-opacity="0.8"/>
<path d="M23.1921 35.8359C22.902 35.8664 22.3524 35.8664 21.9707 35.8359C21.589 35.8053 21.8333 35.7748 22.5051 35.7748C23.1769 35.7748 23.4822 35.8053 23.1921 35.8359Z" fill="white" fill-opacity="0.25"/>
</svg>
