<svg width="218" height="47" viewBox="0 0 218 47" fill="none" xmlns="http://www.w3.org/2000/svg">
<g clip-path="url(#clip0_2020_535)">
<path d="M70.135 18.62C69.8814 17.8241 69.5403 17.1113 69.1117 16.4816C68.6919 15.8431 68.189 15.3008 67.603 14.8548C67.017 14.4 66.348 14.0545 65.5958 13.8184C64.8524 13.5822 64.0346 13.4642 63.1425 13.4642C61.6294 13.4642 60.265 13.8534 59.0493 14.6318C57.8336 15.4102 56.8715 16.5515 56.1631 18.0559C55.4634 19.5515 55.1135 21.3838 55.1135 23.5528C55.1135 25.7306 55.4678 27.5717 56.1762 29.076C56.8846 30.5803 57.8555 31.7217 59.0887 32.5001C60.3219 33.2785 61.7256 33.6677 63.2999 33.6677C64.7605 33.6677 66.0331 33.3704 67.1176 32.7756C68.2109 32.1809 69.0549 31.3413 69.6496 30.2567C70.2531 29.1635 70.5548 27.8778 70.5548 26.3997L71.6044 26.5965H63.9165V23.2511H74.4775V26.3079C74.4775 28.5644 73.9964 30.5235 73.0344 32.1853C72.081 33.8383 70.7604 35.1152 69.0724 36.0161C67.3931 36.9169 65.469 37.3673 63.2999 37.3673C60.8685 37.3673 58.7344 36.8076 56.8978 35.6881C55.0698 34.5686 53.6442 32.9812 52.6209 30.9258C51.5976 28.8617 51.086 26.4128 51.086 23.5791C51.086 21.4363 51.3833 19.5121 51.9781 17.8066C52.5728 16.1011 53.4081 14.6536 54.4838 13.4642C55.5683 12.2659 56.8409 11.352 58.3015 10.7222C59.7709 10.0838 61.3758 9.76454 63.1163 9.76454C64.5681 9.76454 65.9194 9.97882 67.1701 10.4074C68.4295 10.8359 69.549 11.4438 70.5286 12.231C71.5169 13.0181 72.3347 13.9539 72.9819 15.0385C73.6291 16.1142 74.0664 17.3081 74.2938 18.62H70.135ZM77.4614 37V16.8489H81.2529V20.05H81.4628C81.8301 18.9655 82.4774 18.1127 83.4044 17.4918C84.3403 16.862 85.3986 16.5472 86.5793 16.5472C86.8242 16.5472 87.1128 16.5559 87.4452 16.5734C87.7863 16.5909 88.053 16.6128 88.2454 16.639V20.3911C88.088 20.3474 87.8081 20.2993 87.4058 20.2468C87.0035 20.1856 86.6012 20.1549 86.1988 20.1549C85.2717 20.1549 84.4452 20.3517 83.7193 20.7453C83.0021 21.1301 82.4336 21.668 82.0138 22.359C81.594 23.0412 81.3841 23.8196 81.3841 24.6942V37H77.4614ZM89.7928 37V16.8489H93.7155V37H89.7928ZM91.7738 13.7397C91.0916 13.7397 90.5056 13.5123 90.0159 13.0575C89.5348 12.5939 89.2943 12.0429 89.2943 11.4044C89.2943 10.7572 89.5348 10.2062 90.0159 9.75142C90.5056 9.28788 91.0916 9.05611 91.7738 9.05611C92.456 9.05611 93.0377 9.28788 93.5187 9.75142C94.0085 10.2062 94.2534 10.7572 94.2534 11.4044C94.2534 12.0429 94.0085 12.5939 93.5187 13.0575C93.0377 13.5123 92.456 13.7397 91.7738 13.7397ZM112.246 21.7686L108.69 22.3983C108.542 21.9435 108.306 21.5106 107.982 21.0995C107.667 20.6885 107.239 20.3517 106.696 20.0894C106.154 19.827 105.476 19.6958 104.663 19.6958C103.552 19.6958 102.625 19.945 101.882 20.4436C101.138 20.9334 100.766 21.5674 100.766 22.3459C100.766 23.0193 101.016 23.5616 101.514 23.9726C102.013 24.3837 102.817 24.7204 103.928 24.9828L107.129 25.7175C108.983 26.146 110.365 26.8064 111.275 27.6985C112.184 28.5906 112.639 29.7495 112.639 31.1751C112.639 32.382 112.289 33.4578 111.59 34.4024C110.899 35.3382 109.932 36.0729 108.69 36.6064C107.457 37.1399 106.027 37.4067 104.4 37.4067C102.144 37.4067 100.303 36.9257 98.8772 35.9636C97.4516 34.9928 96.577 33.6152 96.2534 31.831L100.045 31.2538C100.281 32.2421 100.766 32.9899 101.501 33.4972C102.236 33.9957 103.193 34.245 104.374 34.245C105.66 34.245 106.688 33.9782 107.457 33.4447C108.227 32.9024 108.612 32.2421 108.612 31.4637C108.612 30.834 108.376 30.3048 107.903 29.8763C107.44 29.4477 106.727 29.1241 105.765 28.9055L102.354 28.1577C100.473 27.7291 99.0828 27.0469 98.1819 26.1111C97.2898 25.1752 96.8438 23.9901 96.8438 22.5558C96.8438 21.3663 97.1761 20.3255 97.8408 19.4334C98.5055 18.5413 99.4239 17.846 100.596 17.3474C101.768 16.8402 103.11 16.5865 104.623 16.5865C106.801 16.5865 108.515 17.0588 109.766 18.0034C111.017 18.9392 111.843 20.1943 112.246 21.7686ZM119.028 25.0353V37H115.105V10.1319H118.975V20.1287H119.224C119.697 19.0442 120.418 18.1827 121.389 17.5442C122.36 16.9058 123.628 16.5865 125.194 16.5865C126.576 16.5865 127.783 16.8708 128.815 17.4393C129.855 18.0078 130.66 18.8561 131.229 19.9844C131.806 21.1039 132.094 22.5033 132.094 24.1825V37H128.172V24.6548C128.172 23.1767 127.791 22.031 127.03 21.2176C126.269 20.3955 125.211 19.9844 123.856 19.9844C122.928 19.9844 122.098 20.1812 121.363 20.5748C120.637 20.9683 120.064 21.5456 119.644 22.3065C119.233 23.0587 119.028 23.9683 119.028 25.0353ZM135.482 37V16.8489H139.404V37H135.482ZM137.463 13.7397C136.781 13.7397 136.195 13.5123 135.705 13.0575C135.224 12.5939 134.983 12.0429 134.983 11.4044C134.983 10.7572 135.224 10.2062 135.705 9.75142C136.195 9.28788 136.781 9.05611 137.463 9.05611C138.145 9.05611 138.727 9.28788 139.208 9.75142C139.697 10.2062 139.942 10.7572 139.942 11.4044C139.942 12.0429 139.697 12.5939 139.208 13.0575C138.727 13.5123 138.145 13.7397 137.463 13.7397ZM146.757 25.0353V37H142.834V16.8489H146.6V20.1287H146.849C147.312 19.0617 148.038 18.2046 149.027 17.5573C150.024 16.9101 151.279 16.5865 152.792 16.5865C154.165 16.5865 155.368 16.8751 156.4 17.4524C157.432 18.0209 158.232 18.8693 158.8 19.9975C159.369 21.1258 159.653 22.5208 159.653 24.1825V37H155.731V24.6548C155.731 23.1942 155.35 22.0529 154.589 21.2307C153.828 20.3998 152.783 19.9844 151.454 19.9844C150.544 19.9844 149.735 20.1812 149.027 20.5748C148.327 20.9683 147.772 21.5456 147.361 22.3065C146.958 23.0587 146.757 23.9683 146.757 25.0353ZM163.067 37V16.8489H166.989V37H163.067ZM165.048 13.7397C164.366 13.7397 163.78 13.5123 163.29 13.0575C162.809 12.5939 162.568 12.0429 162.568 11.4044C162.568 10.7572 162.809 10.2062 163.29 9.75142C163.78 9.28788 164.366 9.05611 165.048 9.05611C165.73 9.05611 166.312 9.28788 166.793 9.75142C167.282 10.2062 167.527 10.7572 167.527 11.4044C167.527 12.0429 167.282 12.5939 166.793 13.0575C166.312 13.5123 165.73 13.7397 165.048 13.7397ZM183.184 28.6431V16.8489H187.12V37H183.263V33.5103H183.053C182.59 34.5861 181.846 35.4825 180.823 36.1997C179.808 36.9082 178.545 37.2624 177.032 37.2624C175.737 37.2624 174.591 36.9781 173.594 36.4096C172.606 35.8324 171.828 34.9796 171.259 33.8514C170.699 32.7231 170.419 31.3281 170.419 29.6664V16.8489H174.342V29.1941C174.342 30.5672 174.723 31.6605 175.484 32.4739C176.244 33.2873 177.233 33.694 178.448 33.694C179.183 33.694 179.913 33.5103 180.639 33.143C181.374 32.7756 181.982 32.2202 182.463 31.4768C182.953 30.7334 183.193 29.7888 183.184 28.6431ZM190.544 37V16.8489H194.309V20.1287H194.558C194.978 19.018 195.665 18.1521 196.618 17.5311C197.571 16.9014 198.713 16.5865 200.042 16.5865C201.389 16.5865 202.517 16.9014 203.427 17.5311C204.345 18.1608 205.023 19.0267 205.46 20.1287H205.67C206.151 19.0529 206.916 18.1958 207.966 17.5573C209.016 16.9101 210.266 16.5865 211.718 16.5865C213.546 16.5865 215.037 17.1594 216.192 18.3051C217.355 19.4509 217.937 21.1782 217.937 23.4872V37H214.014V23.8546C214.014 22.4902 213.642 21.5019 212.899 20.8896C212.155 20.2774 211.268 19.9713 210.236 19.9713C208.959 19.9713 207.966 20.3649 207.258 21.152C206.549 21.9304 206.195 22.9318 206.195 24.1563V37H202.285V23.6053C202.285 22.512 201.944 21.633 201.262 20.9683C200.58 20.3036 199.692 19.9713 198.599 19.9713C197.855 19.9713 197.169 20.1681 196.539 20.5616C195.918 20.9465 195.415 21.4844 195.03 22.1753C194.654 22.8662 194.466 23.6665 194.466 24.5761V37H190.544Z" fill="white"/>
<path fill-rule="evenodd" clip-rule="evenodd" d="M16.4121 3C16.7759 3 17.5327 3.05824 18.0857 3.13104C18.6388 3.2184 19.6575 3.45137 20.3415 3.66977C21.0255 3.88818 22.3353 4.44147 23.2522 4.92196C24.1691 5.38789 25.4643 6.15959 26.1338 6.64008C26.7887 7.10601 27.3126 7.52826 27.2835 7.57194C27.2689 7.61562 27.0215 7.52826 26.745 7.36809C26.4685 7.20793 25.6826 6.84392 24.9986 6.55272C24.3146 6.26151 23.6306 5.9703 23.4705 5.8975C23.3104 5.8247 22.6555 5.59173 22.0152 5.37333C21.3748 5.16949 20.3706 4.9074 19.7885 4.79092C19.2209 4.67444 18.2022 4.58707 17.5473 4.58707C16.8487 4.58707 16.0046 4.689 15.5389 4.82004C15.0586 4.96564 14.5493 5.24229 14.2873 5.51893C13.9962 5.79558 13.7779 6.18871 13.7197 6.55272C13.6615 6.87304 13.6615 7.39721 13.7052 7.71754C13.7634 8.03787 13.8507 8.38731 13.9089 8.47468C13.9817 8.62028 14.1418 8.60572 14.5929 8.38731C14.9131 8.24171 15.8008 7.92138 16.5576 7.67386C17.3144 7.42633 18.5369 7.13513 19.25 7.00408C19.9631 6.87304 21.0837 6.77112 21.7241 6.77112C22.3644 6.77112 23.2813 6.84392 23.7616 6.93128C24.2418 7.01865 24.9986 7.26617 25.4352 7.47001C25.8718 7.68842 26.4539 8.06699 27.1816 8.80956L28.0985 7.84858C28.7097 7.19337 29.3064 6.742 29.9468 6.43623C30.5435 6.14503 31.1838 5.95574 31.6932 5.91206C32.2171 5.88294 32.7701 5.95574 33.294 6.11591C33.9053 6.31975 34.3128 6.5964 34.9822 7.26617C35.5353 7.81946 36.0301 8.5038 36.3212 9.10077C36.5686 9.62494 36.9324 10.6733 37.1361 11.4304C37.3544 12.1876 37.5873 13.5708 37.6746 14.4881C37.7619 15.4345 37.7911 16.8469 37.7328 17.7642C37.6746 18.6523 37.5873 19.6279 37.5291 19.9482C37.4418 20.4433 37.4127 20.3122 37.3108 19.0746C37.2526 18.2738 37.107 16.9925 36.9906 16.2353C36.8742 15.4782 36.6413 14.2988 36.4667 13.6145C36.3066 12.9301 35.8846 11.7799 35.5498 11.0664C35.1326 10.1928 34.6669 9.47934 34.1527 8.92605C33.5997 8.35819 33.1922 8.06699 32.7847 7.95051C32.4063 7.84858 32.0279 7.84858 31.6932 7.93594C31.4167 8.00875 30.8927 8.32907 30.5289 8.63484C30.1651 8.95517 29.9031 9.24637 29.9468 9.27549C29.9904 9.30461 30.4707 9.69774 31.0383 10.1491C31.6059 10.6005 32.5664 11.4887 33.1922 12.1439C33.8034 12.7991 34.633 13.8037 35.0114 14.3862C35.3897 14.954 35.8991 15.9587 36.132 16.5993C36.4521 17.4729 36.5686 18.0262 36.5686 18.7834C36.5686 19.3367 36.5249 19.9919 36.3648 20.6762L37.4127 20.9383C37.9948 21.0693 38.8098 21.3605 39.2318 21.5498C39.6393 21.7537 40.2506 22.1759 40.5708 22.4963C40.8909 22.8166 41.2984 23.3553 41.4585 23.7048C41.7205 24.2289 41.7641 24.5056 41.7059 25.5539C41.6623 26.5731 41.5604 26.9808 41.1674 27.8108C40.9055 28.3786 40.3233 29.2814 39.8722 29.8347C39.421 30.3879 38.6497 31.1596 38.1694 31.5673C37.6892 31.975 36.7723 32.6448 36.132 33.0525C35.4916 33.4747 34.4729 34.0571 33.8762 34.3629C33.2795 34.6687 32.4645 35.0327 32.057 35.1928C31.6641 35.353 31.3876 35.4112 31.4749 35.3384C31.5622 35.2656 32.1734 34.8288 32.8574 34.3629C33.5415 33.897 34.5456 33.1398 35.1132 32.6885C35.6808 32.2225 36.5831 31.3635 37.1507 30.7811C37.7183 30.1841 38.4314 29.3105 38.7516 28.83C39.0572 28.3495 39.4792 27.505 39.6684 26.9371C39.9304 26.1509 39.9886 25.7869 39.9013 25.3355C39.8431 25.0152 39.6248 24.5638 39.421 24.3309C39.2173 24.0979 38.7807 23.7776 38.4605 23.6465C38.1403 23.5009 37.7328 23.3699 37.5582 23.3699C37.2526 23.3699 37.2089 23.4572 37.1361 24.2872C37.0925 24.7822 36.9033 25.816 36.7141 26.5731C36.5249 27.3303 36.1611 28.4805 35.9137 29.1212C35.6663 29.7618 35.2005 30.7083 34.8949 31.2324C34.5893 31.7566 34.0217 32.5137 33.6288 32.9214C33.2504 33.3291 32.5809 33.8387 32.1734 34.0426C31.7514 34.261 31.3148 34.4357 31.2275 34.4357C31.1256 34.4357 30.9509 34.4939 30.8491 34.5522C30.7035 34.625 30.7181 34.8725 30.9655 35.7461C31.1256 36.3577 31.2566 37.2895 31.2566 37.8574C31.2566 38.4252 31.1692 39.2115 31.0528 39.6046C30.8927 40.1433 30.6453 40.5074 30.1068 41.0315C29.6994 41.4101 29.1172 41.8178 28.8262 41.9343C28.5205 42.0653 27.822 42.2255 27.2544 42.3128C26.5704 42.4002 25.8427 42.4002 25.0714 42.2983C24.431 42.2109 23.3541 41.9779 22.6701 41.7595C21.986 41.5557 20.8363 41.1043 20.1232 40.7694C19.4101 40.42 18.2167 39.7502 17.5036 39.2697C16.7905 38.7747 16.0046 38.2068 15.3206 37.6099L15.83 37.9011C16.1065 38.0612 17.0961 38.5126 18.013 38.9057C18.9298 39.3134 20.2105 39.8085 20.8509 40.0123C21.4912 40.2161 22.6118 40.5074 23.325 40.6384C24.1982 40.7986 25.0277 40.8568 25.799 40.7986C26.4394 40.7549 27.2253 40.6093 27.5455 40.4782C27.8656 40.3472 28.3168 40.0705 28.5351 39.8521C28.7534 39.6337 29.0008 39.1969 29.0881 38.8766C29.19 38.4689 29.19 38.0612 29.0881 37.5371C29.0008 37.1148 28.8844 36.7654 28.8262 36.7654C28.7534 36.7654 28.1567 36.9983 27.4727 37.275C26.7887 37.5516 25.6826 37.9011 24.9986 38.0612C24.3146 38.2214 23.1358 38.4398 22.379 38.5272C21.302 38.6582 20.7199 38.6582 19.7594 38.5126C19.0754 38.4252 18.1585 38.2068 17.7219 38.0321C17.2853 37.8719 16.6449 37.4788 15.6844 36.6198L14.7093 37.6244C14.0399 38.2942 13.4286 38.7601 12.8465 39.0368C12.1625 39.3571 11.755 39.4445 10.9546 39.459C10.1396 39.459 9.77573 39.3862 9.13538 39.0804C8.69878 38.862 8.08754 38.3961 7.78192 38.0612C7.46174 37.7118 7.02514 37.1002 6.79229 36.6926C6.55943 36.2994 6.16649 35.3384 5.91908 34.5813C5.67167 33.8242 5.36605 32.4409 5.24962 31.5236C5.08954 30.3297 5.06043 29.325 5.11864 28.0292C5.17686 27.0245 5.26418 25.947 5.33694 25.6267C5.42427 25.1462 5.45337 25.321 5.54069 26.6459C5.59891 27.5341 5.74444 28.8009 5.86087 29.4852C5.97729 30.1695 6.21015 31.247 6.37024 31.8877C6.53032 32.5283 6.95237 33.6494 7.31621 34.3629C7.66549 35.0764 8.24763 35.9937 8.58236 36.3868C8.93164 36.7799 9.42645 37.1876 9.68841 37.3041C9.93582 37.406 10.387 37.4934 10.6635 37.4934C10.94 37.4934 11.3184 37.4206 11.5076 37.3186C11.6822 37.2313 12.0752 36.9546 12.3808 36.7071C12.6864 36.4596 12.9047 36.2121 12.8902 36.1684C12.8611 36.1101 12.3517 35.6879 11.755 35.2074C11.1583 34.7269 10.3142 33.9407 9.87761 33.4747C9.44101 32.9942 8.77155 32.1934 8.37861 31.6692C7.97111 31.1451 7.40353 30.1987 7.09791 29.558C6.79229 28.9173 6.45756 28.0292 6.37024 27.5924C6.26836 27.141 6.2247 26.4712 6.28292 26.0635C6.32658 25.6704 6.39934 25.1753 6.45756 24.9715C6.53032 24.6221 6.48666 24.5929 5.58435 24.4328C5.06043 24.3309 4.27455 24.0979 3.86705 23.9086C3.445 23.7193 2.84831 23.3408 2.52814 23.0641C2.22251 22.7875 1.80047 22.2778 1.59672 21.9138C1.30565 21.4188 1.20378 20.9965 1.16012 20.1666C1.11646 19.2784 1.16012 18.8999 1.43663 18.201C1.62582 17.7205 2.07698 16.8614 2.45537 16.3081C2.8192 15.7548 3.61964 14.8375 4.20178 14.2988C4.79847 13.7601 5.80265 12.9593 6.443 12.537C7.08335 12.1148 7.97111 11.576 8.40771 11.3285C8.84432 11.081 9.68841 10.6878 10.2706 10.4258C10.8381 10.1782 11.3184 9.98895 11.3184 10.0181C11.333 10.0326 11.0564 10.2365 10.7072 10.4694C10.3579 10.7024 9.45556 11.3576 8.69878 11.9255C7.942 12.4933 6.71952 13.5417 6.0064 14.2697C5.27873 14.9831 4.42008 16.0024 4.08535 16.5265C3.73607 17.0507 3.32857 17.8515 3.16849 18.3174C3.0084 18.7688 2.87742 19.3803 2.87742 19.657C2.87742 19.9336 2.96474 20.3413 3.08117 20.5743C3.19759 20.7927 3.445 21.113 3.6342 21.2877C3.80884 21.4479 4.23089 21.6954 4.55106 21.8265C4.87124 21.9575 5.23507 22.0594 5.3515 22.0594C5.51159 22.0594 5.62801 21.6809 5.81721 20.5015C5.94819 19.6279 6.26836 18.3029 6.51577 17.5457C6.76318 16.7886 7.21433 15.6383 7.53451 14.9977C7.84013 14.357 8.39316 13.4543 8.757 13.0029C9.13538 12.537 9.73207 11.94 10.125 11.6925C10.5034 11.4304 11.1438 11.1101 11.5367 10.9645C11.9879 10.8043 12.2353 10.6442 12.2062 10.5277C12.177 10.4258 12.017 9.87247 11.8714 9.31917C11.6677 8.59116 11.6095 7.97963 11.6531 7.13513C11.6822 6.34887 11.7987 5.78102 12.0024 5.38789C12.1625 5.06756 12.4827 4.61619 12.7301 4.36867C12.9629 4.12114 13.4432 3.78626 13.7925 3.61153C14.1563 3.42225 14.7384 3.2184 15.1023 3.1456C15.4661 3.0728 16.0483 3.01456 16.4121 3V3ZM17.2125 8.51836C16.7323 8.60572 15.9027 8.76588 15.3642 8.88237C14.8112 8.99885 14.3746 9.14445 14.3746 9.21725C14.3746 9.27549 14.6075 9.7123 14.8985 10.1928C15.1751 10.6733 15.7572 11.4887 16.1792 12.0128C16.6013 12.537 17.4308 13.3961 18.0275 13.9202C18.6242 14.4444 19.6284 15.2889 20.2687 15.7694L21.433 16.6576C22.117 16.1625 22.801 15.5364 23.3977 14.9249C24.3728 13.9494 24.562 13.6727 25.115 12.3477C25.6535 11.0227 25.7117 10.7898 25.5807 10.3384C25.4934 10.0326 25.2169 9.65406 24.8967 9.39198C24.5911 9.14445 23.9508 8.82412 23.4705 8.6494C22.8447 8.44556 22.117 8.34363 20.8509 8.29995C19.8904 8.27083 18.8716 8.28539 18.5951 8.31451C18.3186 8.34363 17.6928 8.44556 17.2125 8.51836V8.51836ZM29.1754 10.4112C28.9717 10.7752 28.5933 11.5323 28.3313 12.0856C28.0839 12.6535 27.691 13.8183 27.4727 14.7065C27.2544 15.5947 26.9924 16.9925 26.8905 17.837C26.7741 18.6815 26.7305 19.4677 26.7741 19.5842C26.8178 19.7007 27.4872 20.021 28.2877 20.2831C29.2191 20.6034 30.0341 20.7781 30.6017 20.7927C31.0819 20.8073 31.9842 20.749 32.6246 20.6762C33.6288 20.5452 33.818 20.4724 34.1673 20.0938C34.371 19.8608 34.6039 19.3949 34.6621 19.0746C34.7203 18.7397 34.7057 18.1282 34.6039 17.6186C34.5165 17.1381 34.1236 16.0897 33.7161 15.2889C33.3232 14.4881 32.6828 13.4106 32.2899 12.8865C31.8969 12.3623 31.1256 11.445 30.5726 10.848L29.5538 9.75598L29.1754 10.4112ZM10.678 13.5562C10.4306 13.7018 9.89216 14.2551 9.47011 14.7793C9.03351 15.3035 8.36405 16.3809 7.97111 17.1817C7.56362 17.9826 7.01059 19.3221 6.73407 20.1666C6.45756 21.0111 6.2247 21.7828 6.2247 21.8847C6.2247 22.0012 6.54488 22.0594 7.35987 22.0594C7.97111 22.0594 9.03351 21.9575 9.71752 21.841C10.4015 21.71 11.4785 21.4334 12.1188 21.2441C12.7592 21.0402 13.9235 20.6034 14.7093 20.2685C16.0191 19.7007 16.1356 19.6279 16.121 19.2639C16.121 19.0309 16.0191 18.4048 15.9027 17.837C15.7863 17.2837 15.568 16.512 15.4225 16.1334C15.2769 15.7403 14.8112 14.9831 14.3892 14.4153C13.9526 13.862 13.4723 13.2796 13.2977 13.134C13.1085 12.9738 12.7737 12.8719 12.4099 12.8865C12.0897 12.8865 11.6677 12.9738 11.4639 13.0757C11.2602 13.1777 10.9109 13.3961 10.678 13.5562V13.5562ZM19.8176 21.5207C19.5265 21.6954 19.512 21.8119 19.5556 22.7583L19.6138 23.8067L21.5058 24.8259L23.2376 23.7339L23.2522 21.5498C21.7823 20.8218 21.3166 20.6034 21.2584 20.618C21.1856 20.618 20.9091 20.7781 20.6326 20.9674C20.3561 21.1713 19.9777 21.4042 19.8176 21.5207V21.5207ZM31.9115 23.7921C31.2711 23.9523 30.3834 24.2144 29.9468 24.36C29.5102 24.5201 28.5787 24.8841 27.8802 25.1754C27.1671 25.4666 26.5995 25.7141 26.5995 25.7432C26.5995 25.7578 26.7014 26.2965 26.8032 26.9371C26.9197 27.5778 27.138 28.4951 27.2835 28.9756C27.4581 29.5143 27.8365 30.1987 28.2877 30.7811C28.6806 31.2907 29.1318 31.8585 29.2919 32.0624C29.4811 32.2808 29.7867 32.4409 30.1651 32.4992C30.5726 32.5574 30.9218 32.4992 31.3293 32.3099C31.635 32.1497 32.2171 31.742 32.61 31.378C33.003 31.014 33.6142 30.3006 33.9635 29.7764C34.2982 29.2522 34.8076 28.3349 35.0987 27.738C35.3752 27.141 35.8409 25.9616 36.1174 25.1171C36.4085 24.2726 36.6413 23.5009 36.6413 23.4136C36.6413 23.2825 36.3939 23.2243 35.8118 23.2388C35.3461 23.2534 34.5456 23.3116 34.0217 23.3699C33.4978 23.4427 32.5518 23.6174 31.9115 23.7921V23.7921ZM8.72789 25.1608C8.55325 25.3355 8.32039 25.7141 8.23307 25.9907C8.14575 26.2819 8.11665 26.8498 8.17486 27.3448C8.21852 27.7962 8.42227 28.5825 8.61146 29.0921C8.80066 29.5871 9.22271 30.4462 9.55743 31.014C9.90672 31.5819 10.4452 32.3973 10.7799 32.8341C11.1146 33.2709 11.7841 34.0426 12.2644 34.5376C12.7446 35.0472 13.1812 35.4695 13.254 35.4549C13.3122 35.4549 13.6033 35.0181 13.8944 34.4794C14.2 33.9261 14.622 32.9651 14.8549 32.3245C15.0877 31.6838 15.3934 30.6063 15.5389 29.922C15.6844 29.2377 15.8882 28.0292 15.9755 27.2284C16.1356 25.9907 16.121 25.7432 15.9464 25.6267C15.83 25.5394 15.1896 25.2918 14.5201 25.0589C13.6906 24.7822 12.9193 24.6221 12.1916 24.5929C11.5949 24.5784 10.6489 24.6221 10.0814 24.6949C9.36824 24.7968 8.96074 24.9278 8.72789 25.1608V25.1608ZM18.7988 31.0286C18.5514 31.3489 18.0712 32.2225 17.7365 32.9797C17.4163 33.7368 17.1398 34.4939 17.1398 34.6541C17.1398 34.8143 17.2853 35.1783 17.4745 35.4549C17.6491 35.7316 18.0712 36.1101 18.3768 36.2849C18.697 36.4596 19.381 36.7071 19.9049 36.8527C20.6617 37.042 21.302 37.0711 23.1067 37.0274C24.693 36.9692 25.8136 36.8527 26.8905 36.6198C27.7346 36.4305 28.4478 36.2557 28.4914 36.2412C28.5351 36.2121 28.244 35.6442 27.8365 34.989C27.3708 34.2173 26.5704 33.2563 25.5807 32.2517C24.7366 31.4072 23.4705 30.2715 22.7428 29.7327C22.0297 29.194 21.4039 28.7572 21.3603 28.7572C21.3166 28.7572 20.8363 29.1503 20.2687 29.6162C19.7157 30.0822 19.0463 30.7228 18.7988 31.0286V31.0286Z" fill="white"/>
<path d="M11.5076 8.00871C11.4639 7.45541 11.4639 6.74196 11.5221 6.45075C11.5803 6.14499 11.6385 5.89746 11.6677 5.89746C11.6822 5.89746 11.6677 6.40707 11.6385 7.03317C11.6094 7.73206 11.6677 8.50376 11.7986 9.10073C11.9296 9.6249 12.0024 10.0763 11.9733 10.12C11.9442 10.1636 11.8423 9.93067 11.755 9.61034C11.6677 9.29001 11.5512 8.562 11.5076 8.00871Z" fill="white" fill-opacity="0.8"/>
<path d="M4.98763 15.2889L5.93361 14.3133C6.44298 13.76 6.89413 13.3232 6.90868 13.3232C6.93779 13.3232 6.95235 13.3378 6.95235 13.3669C6.95235 13.3815 6.51574 13.8183 4.98763 15.2889Z" fill="white" fill-opacity="0.8"/>
<path d="M1.55303 17.6185C1.78588 17.138 2.17883 16.4682 2.42623 16.1334C2.67364 15.7839 2.9065 15.5073 2.9356 15.5073C2.96471 15.5073 2.73186 15.8858 2.42623 16.3518C2.10606 16.8031 1.69856 17.5748 1.49482 18.0553C1.30562 18.5358 1.13098 18.827 1.13098 18.7105C1.13098 18.5941 1.32018 18.099 1.55303 17.6185Z" fill="white" fill-opacity="0.8"/>
<path d="M1.11643 21.113C1.05821 20.9528 1 20.3995 1 19.8754C1.01455 19.3512 1.02911 18.9872 1.05821 19.0745C1.08732 19.1619 1.13098 19.7152 1.17464 20.3122C1.20375 20.9383 1.18919 21.2731 1.11643 21.113Z" fill="white" fill-opacity="0.8"/>
<path d="M1.68401 22.2778C1.45116 21.9575 1.27651 21.6372 1.27651 21.5498C1.27651 21.4624 1.42205 21.6372 1.58214 21.9138C1.75678 22.1904 2.09151 22.6564 2.33891 22.933C2.62998 23.2388 2.67364 23.3262 2.45534 23.1514C2.26615 22.9913 1.91686 22.5981 1.68401 22.2778Z" fill="white" fill-opacity="0.8"/>
<path d="M10.2414 33.9989C10.0231 33.795 9.57196 33.3291 9.23723 32.9505C8.91706 32.5574 8.69875 32.2516 8.75697 32.2516C8.81518 32.2516 9.26634 32.7321 9.76115 33.3145C10.2414 33.8824 10.4597 34.2027 10.2414 33.9989Z" fill="white" fill-opacity="0.8"/>
<path d="M25.8718 40.7985C25.5953 40.8276 25.0713 40.8276 24.7075 40.7985C24.3437 40.7694 24.5765 40.7403 25.2169 40.7403C25.8572 40.7403 26.1483 40.7694 25.8718 40.7985Z" fill="white" fill-opacity="0.8"/>
<path d="M18.304 14.3424C18.2603 14.3424 17.7655 13.8911 17.2125 13.3232C16.6595 12.7554 16.252 12.304 16.3102 12.304C16.3684 12.304 16.8632 12.7699 17.4017 13.3232C17.9402 13.8911 18.3477 14.3424 18.304 14.3424Z" fill="white" fill-opacity="0.8"/>
<path d="M23.3249 23.4426L23.2522 22.3943C23.2085 21.8119 23.2231 21.3896 23.2958 21.4479C23.354 21.5061 23.3831 21.972 23.3249 23.4426Z" fill="white" fill-opacity="0.8"/>
<path d="M26.5994 33.1252C26.5558 33.1252 26.0755 32.6739 25.5079 32.106C24.9404 31.5382 24.5474 31.0868 24.6056 31.0868C24.6638 31.0868 25.1587 31.5527 25.6971 32.106C26.2356 32.6739 26.6431 33.1252 26.5994 33.1252Z" fill="white" fill-opacity="0.8"/>
<path d="M23.1065 37.1586C22.83 37.1877 22.306 37.1877 21.9422 37.1586C21.5784 37.1294 21.8112 37.1003 22.4516 37.1003C23.0919 37.1003 23.383 37.1294 23.1065 37.1586Z" fill="white" fill-opacity="0.25"/>
</g>
<defs>
<clipPath id="clip0_2020_535">
<rect width="218" height="47" fill="white"/>
</clipPath>
</defs>
</svg>
