<svg width="217" height="41" viewBox="0 0 217 41" fill="none" xmlns="http://www.w3.org/2000/svg">
<g clip-path="url(#clip0_2020_508)">
<path d="M25.2789 14.277C24.9516 13.2497 24.5113 12.3297 23.9582 11.5169C23.4163 10.6928 22.7672 9.99295 22.0109 9.41723C21.2545 8.83022 20.391 8.38432 19.4201 8.07953C18.4606 7.77474 17.4051 7.62234 16.2537 7.62234C14.3008 7.62234 12.5397 8.12469 10.9706 9.12937C9.4015 10.1341 8.15975 11.6072 7.24537 13.5489C6.34229 15.4792 5.89074 17.8442 5.89074 20.6438C5.89074 23.4546 6.34793 25.8309 7.26231 27.7725C8.17669 29.7142 9.42972 31.1873 11.0214 32.192C12.6131 33.1967 14.4249 33.699 16.4569 33.699C18.3421 33.699 19.9846 33.3152 21.3844 32.5476C22.7954 31.78 23.8848 30.6963 24.6524 29.2965C25.4313 27.8854 25.8208 26.226 25.8208 24.3182L27.1754 24.5722H17.2527V20.2543H30.8837V24.1997C30.8837 27.1121 30.2629 29.6408 29.0211 31.7856C27.7907 33.9192 26.0861 35.5673 23.9074 36.73C21.74 37.8928 19.2565 38.4741 16.4569 38.4741C13.3186 38.4741 10.5642 37.7517 8.19362 36.3067C5.8343 34.8618 3.99425 32.8129 2.67349 30.1601C1.35272 27.4959 0.692334 24.3351 0.692334 20.6776C0.692334 17.9119 1.07615 15.4284 1.84377 13.2271C2.6114 11.0259 3.68946 9.15759 5.07796 7.62234C6.47775 6.0758 8.12024 4.89614 10.0054 4.08336C11.9019 3.25929 13.9734 2.84726 16.2198 2.84726C18.0937 2.84726 19.8378 3.12383 21.4521 3.67697C23.0777 4.23011 24.5226 5.01467 25.7869 6.03065C27.0625 7.04662 28.118 8.2545 28.9534 9.65429C29.7887 11.0428 30.3532 12.5837 30.6467 14.277H25.2789ZM34.7351 38V11.991H39.6287V16.1227H39.8997C40.3738 14.7229 41.2091 13.6222 42.4057 12.8207C43.6136 12.008 44.9795 11.6016 46.5035 11.6016C46.8196 11.6016 47.1921 11.6129 47.6211 11.6354C48.0613 11.658 48.4056 11.6862 48.654 11.7201V16.5629C48.4508 16.5065 48.0896 16.4444 47.5703 16.3767C47.051 16.2976 46.5317 16.2581 46.0124 16.2581C44.8159 16.2581 43.7491 16.5121 42.8121 17.0201C41.8865 17.5168 41.1527 18.2111 40.6108 19.1029C40.069 19.9834 39.7981 20.9881 39.7981 22.1169V38H34.7351ZM50.6512 38V11.991H55.7142V38H50.6512ZM53.2081 7.97793C52.3276 7.97793 51.5712 7.68443 50.9391 7.09742C50.3182 6.49912 50.0078 5.78794 50.0078 4.96387C50.0078 4.12852 50.3182 3.41733 50.9391 2.83032C51.5712 2.23203 52.3276 1.93288 53.2081 1.93288C54.0886 1.93288 54.8393 2.23203 55.4602 2.83032C56.0923 3.41733 56.4084 4.12852 56.4084 4.96387C56.4084 5.78794 56.0923 6.49912 55.4602 7.09742C54.8393 7.68443 54.0886 7.97793 53.2081 7.97793ZM79.6311 18.3409L75.0422 19.1537C74.8503 18.5667 74.5455 18.0079 74.1279 17.4773C73.7215 16.9467 73.1683 16.5121 72.4684 16.1735C71.7685 15.8348 70.8937 15.6655 69.8438 15.6655C68.4102 15.6655 67.2136 15.9872 66.2541 16.6307C65.2945 17.2628 64.8148 18.0812 64.8148 19.0859C64.8148 19.9552 65.1365 20.655 65.7799 21.1856C66.4234 21.7162 67.4619 22.1508 68.8956 22.4894L73.0272 23.4377C75.4204 23.9908 77.204 24.8431 78.378 25.9946C79.552 27.146 80.1391 28.6417 80.1391 30.4818C80.1391 32.0396 79.6875 33.4281 78.7844 34.6473C77.8926 35.8552 76.6452 36.8034 75.0422 37.492C73.4506 38.1806 71.6049 38.5249 69.5052 38.5249C66.5927 38.5249 64.2165 37.904 62.3764 36.6623C60.5364 35.4093 59.4075 33.6313 58.9898 31.3284L63.8835 30.5834C64.1882 31.859 64.8148 32.8242 65.763 33.4789C66.7112 34.1224 67.9474 34.4441 69.4713 34.4441C71.1307 34.4441 72.4572 34.0998 73.4506 33.4112C74.4439 32.7113 74.9406 31.859 74.9406 30.8543C74.9406 30.0415 74.6359 29.3586 74.0263 28.8054C73.428 28.2523 72.508 27.8346 71.2662 27.5524L66.8636 26.5872C64.4366 26.0341 62.6417 25.1536 61.479 23.9457C60.3275 22.7378 59.7518 21.2082 59.7518 19.3569C59.7518 17.8216 60.1808 16.4783 61.0387 15.3268C61.8967 14.1754 63.082 13.2779 64.5946 12.6345C66.1073 11.9797 67.8401 11.6524 69.793 11.6524C72.6039 11.6524 74.8165 12.262 76.4307 13.4811C78.045 14.689 79.1118 16.3089 79.6311 18.3409ZM88.3845 22.5572V38H83.3216V3.32138H88.3168V16.2243H88.6385C89.2481 14.8245 90.1794 13.7125 91.4325 12.8885C92.6855 12.0644 94.3223 11.6524 96.343 11.6524C98.1266 11.6524 99.6844 12.0193 101.016 12.753C102.36 13.4868 103.398 14.5818 104.132 16.038C104.877 17.4829 105.25 19.2891 105.25 21.4565V38H100.187V22.0661C100.187 20.1583 99.6957 18.6795 98.7136 17.6297C97.7315 16.5686 96.3656 16.038 94.6159 16.038C93.4193 16.038 92.3468 16.292 91.3986 16.8C90.4616 17.308 89.7222 18.053 89.1804 19.0351C88.6498 20.006 88.3845 21.18 88.3845 22.5572ZM109.622 38V11.991H114.685V38H109.622ZM112.179 7.97793C111.298 7.97793 110.542 7.68443 109.91 7.09742C109.289 6.49912 108.978 5.78794 108.978 4.96387C108.978 4.12852 109.289 3.41733 109.91 2.83032C110.542 2.23203 111.298 1.93288 112.179 1.93288C113.059 1.93288 113.81 2.23203 114.431 2.83032C115.063 3.41733 115.379 4.12852 115.379 4.96387C115.379 5.78794 115.063 6.49912 114.431 7.09742C113.81 7.68443 113.059 7.97793 112.179 7.97793ZM124.175 22.5572V38H119.112V11.991H123.972V16.2243H124.293C124.892 14.8471 125.829 13.7408 127.104 12.9054C128.391 12.0701 130.011 11.6524 131.964 11.6524C133.736 11.6524 135.288 12.0249 136.62 12.77C137.953 13.5037 138.985 14.5987 139.719 16.0549C140.453 17.5112 140.82 19.3117 140.82 21.4565V38H135.757V22.0661C135.757 20.1809 135.266 18.7078 134.284 17.6466C133.302 16.5742 131.953 16.038 130.237 16.038C129.063 16.038 128.019 16.292 127.104 16.8C126.201 17.308 125.484 18.053 124.954 19.0351C124.434 20.006 124.175 21.18 124.175 22.5572ZM145.226 38V11.991H150.289V38H145.226ZM147.783 7.97793C146.902 7.97793 146.146 7.68443 145.514 7.09742C144.893 6.49912 144.582 5.78794 144.582 4.96387C144.582 4.12852 144.893 3.41733 145.514 2.83032C146.146 2.23203 146.902 1.93288 147.783 1.93288C148.663 1.93288 149.414 2.23203 150.035 2.83032C150.667 3.41733 150.983 4.12852 150.983 4.96387C150.983 5.78794 150.667 6.49912 150.035 7.09742C149.414 7.68443 148.663 7.97793 147.783 7.97793ZM171.192 27.2137V11.991H176.271V38H171.293V33.4958H171.022C170.424 34.8843 169.464 36.0414 168.144 36.9671C166.834 37.8815 165.203 38.3387 163.25 38.3387C161.579 38.3387 160.101 37.9718 158.814 37.238C157.538 36.493 156.533 35.3923 155.8 33.9361C155.077 32.4799 154.716 30.6793 154.716 28.5345V11.991H159.779V27.9249C159.779 29.6972 160.27 31.1083 161.252 32.1581C162.234 33.208 163.51 33.7329 165.079 33.7329C166.027 33.7329 166.97 33.4958 167.907 33.0217C168.855 32.5476 169.639 31.8308 170.26 30.8712C170.892 29.9117 171.203 28.6925 171.192 27.2137ZM180.69 38V11.991H185.55V16.2243H185.872C186.413 14.7906 187.3 13.673 188.53 12.8715C189.761 12.0588 191.234 11.6524 192.95 11.6524C194.688 11.6524 196.144 12.0588 197.318 12.8715C198.504 13.6843 199.378 14.8019 199.943 16.2243H200.214C200.835 14.8358 201.822 13.7295 203.177 12.9054C204.532 12.0701 206.146 11.6524 208.02 11.6524C210.379 11.6524 212.304 12.3918 213.794 13.8706C215.295 15.3494 216.046 17.5789 216.046 20.5591V38H210.983V21.0332C210.983 19.2722 210.503 17.9966 209.544 17.2064C208.584 16.4162 207.438 16.0211 206.106 16.0211C204.458 16.0211 203.177 16.5291 202.263 17.545C201.348 18.5497 200.891 19.8423 200.891 21.4227V38H195.845V20.7115C195.845 19.3004 195.405 18.1659 194.524 17.308C193.644 16.45 192.498 16.0211 191.087 16.0211C190.127 16.0211 189.241 16.2751 188.428 16.7831C187.627 17.2797 186.978 17.974 186.481 18.8658C185.996 19.7576 185.753 20.7905 185.753 21.9645V38H180.69Z" fill="white"/>
</g>
<defs>
<clipPath id="clip0_2020_508">
<rect width="217" height="41" fill="white"/>
</clipPath>
</defs>
</svg>
